<svg width="14" height="14" viewBox="0 0 14 14" fill="none" xmlns="http://www.w3.org/2000/svg">
<path fill-rule="evenodd" clip-rule="evenodd" d="M7.0002 0.388885C7.45327 0.388885 7.82056 0.756172 7.82056 1.20924L7.82056 12.7908C7.82056 13.2438 7.45327 13.6111 7.0002 13.6111C6.54713 13.6111 6.17984 13.2438 6.17984 12.7908L6.17984 1.20924C6.17984 0.756172 6.54713 0.388885 7.0002 0.388885Z" fill="#1D1D1D"/>
<path fill-rule="evenodd" clip-rule="evenodd" d="M0.38916 6.99994C0.38916 6.54687 0.756446 6.17958 1.20952 6.17958H12.791C13.2441 6.17958 13.6114 6.54687 13.6114 6.99994C13.6114 7.45301 13.2441 7.82029 12.791 7.82029H1.20952C0.756446 7.82029 0.38916 7.45301 0.38916 6.99994Z" fill="#1D1D1D"/>
</svg>
