<svg width="14" height="14" viewBox="0 0 14 14" fill="none" xmlns="http://www.w3.org/2000/svg">
<path fill-rule="evenodd" clip-rule="evenodd" d="M6.99847 0.82373C7.42175 0.82373 7.76489 1.16687 7.76489 1.59015L7.76489 12.4102C7.76489 12.8335 7.42175 13.1767 6.99847 13.1767C6.57519 13.1767 6.23205 12.8335 6.23205 12.4102L6.23205 1.59015C6.23205 1.16687 6.57519 0.82373 6.99847 0.82373Z" fill="#00B866"/>
<path fill-rule="evenodd" clip-rule="evenodd" d="M0.823242 7.00017C0.823242 6.57689 1.16638 6.23375 1.58967 6.23375H12.4098C12.833 6.23375 13.1762 6.57689 13.1762 7.00017C13.1762 7.42346 12.833 7.7666 12.4098 7.7666H1.58967C1.16638 7.7666 0.823242 7.42346 0.823242 7.00017Z" fill="#00B866"/>
</svg>
