<svg width="14" height="13" viewBox="0 0 14 13" fill="none" xmlns="http://www.w3.org/2000/svg">
<path fill-rule="evenodd" clip-rule="evenodd" d="M0.277787 11.4786C-0.0702566 11.8268 -0.070203 12.391 0.277894 12.739C0.625992 13.087 1.19031 13.087 1.53835 12.7389L6.51635 7.76042L11.4948 12.7385C11.8428 13.0865 12.4072 13.0865 12.7552 12.7385C13.1032 12.3904 13.1032 11.8261 12.7552 11.4781L7.7767 6.49998L12.7548 1.52134C13.1028 1.17327 13.1028 0.608989 12.7547 0.26098C12.4066 -0.0870378 11.8423 -0.0869846 11.4942 0.261087L6.51617 5.23963L1.53774 0.261515C1.18968 -0.086521 0.62535 -0.086521 0.277288 0.261515C-0.0707823 0.609559 -0.0707823 1.17384 0.277288 1.52188L5.2559 6.50007L0.277787 11.4786Z" fill="#777777"/>
</svg>
